<svg version="1.0" xmlns="http://www.w3.org/2000/svg" width="106.667" height="106.667" viewBox="0 0 80 80"><path d="M27.5 2c-3.3 1.1-8.2 3.7-11 5.8-30.3 23.1-15.8 70.4 22 71.8 17 .6 30.4-7.7 37.9-23.6 2.6-5.4 3.1-7.9 3.3-14.7.4-17-7.8-30.2-23.2-37.4-9-4.3-19.8-5-29-1.9zm27.7 6.3c6.9 3.4 13.1 9.6 16.6 16.7 2.4 4.8 2.7 6.7 2.7 15s-.3 10.2-2.7 15c-3.5 7.1-9.7 13.3-16.7 16.7-4.9 2.5-6.8 2.8-15.1 2.8s-10.2-.3-15-2.7C5.8 62.4-1 38.3 10.7 20.7c4.2-6.3 10.7-11.4 17.6-13.9C36 4.1 47.9 4.7 55.2 8.3z"/><path d="M20.8 30.8c-2.2.4-2.4 4.2-.3 4.2.8 0 1.6-.1 1.8-.1.1-.1 2 .6 4.2 1.5 7.4 3.1 10.4 7.5 11.4 16.8.1.5 1 .8 2 .8 5.6 0 .7-15-6.3-19.6-3.2-2-10.6-4.2-12.8-3.6zM53 31.6c-2.5.8-5.8 2.4-7.4 3.7-2.5 2-2.7 2.6-1.7 4.6l1.2 2.2 3-2.5c2.7-2.3 8.5-4.6 11.7-4.6 1.9 0 1.4-3.7-.6-4.2-1-.3-3.8.1-6.2.8z"/></svg>