<?xml version="1.0" standalone="no"?>
<!DOCTYPE svg PUBLIC "-//W3C//DTD SVG 20010904//EN"
 "http://www.w3.org/TR/2001/REC-SVG-20010904/DTD/svg10.dtd">
<svg version="1.0" xmlns="http://www.w3.org/2000/svg"
 width="80.000000pt" height="80.000000pt" viewBox="0 0 80.000000 80.000000"
 preserveAspectRatio="xMidYMid meet">
<metadata>
Created by potrace 1.11, written by Peter Selinger 2001-2013
</metadata>
<g transform="translate(0.000000,80.000000) scale(0.100000,-0.100000)"
fill="#000000" stroke="none">
<path d="M275 780 c-33 -11 -82 -37 -110 -58 -303 -231 -158 -704 220 -718
170 -6 304 77 379 236 26 54 31 79 33 147 4 170 -78 302 -232 374 -90 43 -198
50 -290 19z m277 -63 c69 -34 131 -96 166 -167 24 -48 27 -67 27 -150 0 -83
-3 -102 -27 -150 -35 -71 -97 -133 -167 -167 -49 -25 -68 -28 -151 -28 -83 0
-102 3 -150 27 -192 94 -260 335 -143 511 42 63 107 114 176 139 77 27 196 21
269 -15z"/>
<path d="M208 492 c-22 -4 -24 -42 -3 -42 8 0 16 1 18 1 1 1 20 -6 42 -15 74
-31 104 -75 114 -168 1 -5 10 -8 20 -8 56 0 7 150 -63 196 -32 20 -106 42
-128 36z"/>
<path d="M530 484 c-25 -8 -58 -24 -74 -37 -25 -20 -27 -26 -17 -46 l12 -22
30 25 c27 23 85 46 117 46 19 0 14 37 -6 42 -10 3 -38 -1 -62 -8z"/>
</g>
</svg>
